<svg width="1835" height="1286" viewBox="0 0 1835 1286" fill="none" xmlns="http://www.w3.org/2000/svg">
<g filter="url(#filter0_f_17_15)">
<path d="M1831 1245.5V217.5V48L1550.66 16.2919C1482.28 8.5568 1448.08 4.68927 1413.9 4.19942C1377.08 3.67176 1340.27 6.07156 1303.83 11.3762C1270 16.3006 1236.6 24.5754 1169.8 41.1251L1169.8 41.1254C1079.94 63.3851 1035.02 74.515 989.559 79.6003C940.603 85.0771 891.203 85.3333 842.192 80.3646C796.683 75.751 750.857 64.9013 659.205 43.2019C583.478 25.2732 545.615 16.3089 507.92 11.6381C471.395 7.11231 434.568 5.49499 397.787 6.80143C359.828 8.1497 321.965 13.6669 246.241 24.7013L4 60V1282L324.972 1213.94L324.985 1213.94C343.087 1210.1 352.14 1208.18 361.116 1206.53C459.695 1188.39 561.072 1192.33 657.946 1218.07C666.769 1220.41 675.648 1223.03 693.405 1228.26C711.805 1233.69 721.005 1236.4 730.14 1238.82C830.47 1265.37 935.558 1268.54 1037.31 1248.08C1046.57 1246.22 1055.92 1244.06 1074.61 1239.76L1197.08 1211.56C1302.23 1187.34 1412.08 1193.21 1514.06 1228.49L1522.19 1231.31C1621.61 1265.7 1728.85 1270.63 1831 1245.5Z" fill="white"/>
</g>
<defs>
<filter id="filter0_f_17_15" x="0" y="0.128082" width="1835" height="1285.87" filterUnits="userSpaceOnUse" color-interpolation-filters="sRGB">
<feFlood flood-opacity="0" result="BackgroundImageFix"/>
<feBlend mode="normal" in="SourceGraphic" in2="BackgroundImageFix" result="shape"/>
<feGaussianBlur stdDeviation="2" result="effect1_foregroundBlur_17_15"/>
</filter>
</defs>
</svg>
